# Blender v2.69 (sub 0) OBJ File: ''
# www.blender.org
mtllib arwingship.mtl
o arwingship
v -2.000680 -2.598397 1.482216
v -0.003030 -2.678931 -3.932082
v -0.000780 -2.846560 2.268288
v -2.001867 -2.608481 -1.723675
v -2.999613 -0.554129 0.802650
v -0.005525 -2.252416 -11.118720
v -0.006559 0.569657 -18.163031
v 1.997563 -2.610753 -1.724974
v 2.999569 -0.557540 0.800713
v 1.998791 -2.600676 1.480958
v 0.003831 0.766952 8.893611
v -1.398592 1.217938 1.308163
v 1.401013 1.216354 1.307265
v 0.802229 3.001536 1.613818
v -0.797542 3.002436 1.614323
v -0.801574 0.387093 -4.951728
v 0.798252 0.386168 -4.952194
v -1.398592 1.217938 1.308163
v 0.003831 0.766952 8.893611
v -0.797542 3.002436 1.614323
v 1.401013 1.216354 1.307265
v 0.802229 3.001536 1.613818
v -2.399759 -0.542621 0.602821
v -4.201960 -3.429437 -1.371193
v -4.204292 -0.828888 -11.433677
v -6.199259 -0.540464 0.604018
v -4.198929 -1.964479 4.325203
v -4.198190 2.312479 -0.228688
v -4.193836 4.645278 7.722852
v 4.196941 -3.434220 -1.373823
v 6.199079 -0.547517 0.600102
v 4.199947 -1.969275 4.322523
v 4.194597 -0.833684 -11.436297
v 4.200670 2.307703 -0.231363
v 2.399590 -0.545349 0.601286
v 4.205051 4.640483 7.720232
v -0.801574 0.387093 -4.951728
v -1.398592 1.217938 1.308163
v -0.797542 3.002436 1.614323
v 1.401013 1.216354 1.307265
v 0.798252 0.386168 -4.952194
v 0.802229 3.001536 1.613818
v -1.398592 1.217938 1.308163
v -0.801574 0.387093 -4.951728
v -2.999613 -0.554129 0.802650
v 0.798252 0.386168 -4.952194
v 1.401013 1.216354 1.307265
v 2.999569 -0.557540 0.800713
v -0.000780 -2.846560 2.268288
v 2.999569 -0.557540 0.800713
v -2.999613 -0.554129 0.802650
v 0.003831 0.766952 8.893611
vt 0.130366 0.686135
vt 0.180974 0.607028
vt 0.123366 0.605164
vt 0.159204 0.687068
vt 0.136422 0.727964
vt 0.246052 0.609133
vt 0.309988 0.611201
vt 0.159451 0.525586
vt 0.136796 0.483377
vt 0.130613 0.524653
vt 0.110655 0.482531
vt 0.132495 0.605459
vt 0.110281 0.727119
vt 0.039131 0.602439
vt 0.129428 0.439927
vt 0.128922 0.770933
vt 0.131774 0.646911
vt 0.131901 0.563963
vt 0.096342 0.615801
vt 0.015727 0.575187
vt 0.096820 0.574814
vt 0.132310 0.522658
vt 0.164933 0.626694
vt 0.244807 0.609092
vt 0.164995 0.586323
vt 0.342883 0.810095
vt 0.703616 0.810071
vt 0.358255 0.640360
vt 0.445039 0.308380
vt 0.393991 0.354298
vt 0.393991 0.507098
vt 0.342707 0.308458
vt 0.393991 0.271228
vt 0.393991 0.253621
vt 0.393991 0.109973
vt 0.393991 0.308691
vt 0.393991 0.156356
vt 0.393991 0.451252
vt 0.395436 0.354298
vt 0.446721 0.308380
vt 0.395436 0.253621
vt 0.395436 0.507098
vt 0.395436 0.308691
vt 0.395436 0.109973
vt 0.344270 0.308380
vt 0.395436 0.451252
vt 0.395436 0.156356
vt 0.395436 0.271228
vt 0.746421 0.755368
vt 0.860567 0.755481
vt 0.860567 0.640360
vt 0.746421 0.640360
vt 0.725846 0.562837
vt 0.818167 0.396560
vt 0.692565 0.521277
vt 0.860029 0.414199
vt 0.807658 0.597189
vt 0.860320 0.591966
vt 0.692565 0.198443
vt 0.978185 0.155605
vt 0.718427 0.048777
vt 0.978598 0.021585
vn -0.579058 -0.601398 0.550401
vn -0.000580 -0.998840 -0.047975
vn -0.000411 -0.935000 0.354646
vn -0.635517 -0.764275 -0.109348
vn -0.968915 -0.209427 0.131701
vn -0.000641 -0.939756 -0.341777
vn -0.000275 0.146031 -0.989257
vn 0.634571 -0.764977 -0.109836
vn 0.968771 -0.210538 0.130983
vn 0.578784 -0.602069 0.550005
vn -0.754882 0.631494 0.177110
vn 0.755740 0.630627 0.176542
vn 0.000631 0.955957 0.293507
vn -0.280170 0.959944 -0.003595
vn 0.281271 0.959621 -0.003807
vn -0.939741 0.283818 0.190617
vn 0.940206 0.282752 0.189908
vn 0.971709 -0.046419 0.231483
vn 0.020600 -0.997345 -0.069765
vn 0.005066 -0.014649 -0.999878
vn -0.971892 -0.048952 0.230232
vn 0.014649 -0.150884 0.988433
vn 0.024384 0.960936 -0.275643
vn 0.007935 0.491440 0.870846
vn -0.021790 -0.997314 -0.069735
vn 0.971984 -0.050081 0.229530
vn -0.014100 -0.150884 0.988433
vn -0.005829 -0.014618 -0.999847
vn -0.023499 0.960967 -0.275613
vn -0.971587 -0.045289 0.232185
vn -0.006714 0.491440 0.870876
vn -0.145855 0.919110 -0.366009
vn -0.932033 0.336846 -0.133598
vn -0.448747 0.830318 -0.330451
vn 0.932315 0.335781 -0.134312
vn 0.146682 0.918935 -0.366118
vn 0.449496 0.829780 -0.330786
vn -0.709639 0.686439 -0.158787
vn 0.710320 0.685608 -0.159333
vn 0.000579 0.539195 0.842181
vn -0.000170 -0.702670 0.711516
vn -0.000170 -0.702646 0.711540
vn -0.000509 -0.986901 0.161329
usemtl Material01
s 1
f 1/1/1 2/2/2 3/3/3
f 2/2/2 1/1/1 4/4/4
f 4/4/4 1/1/1 5/5/5
f 6/6/6 4/4/4 5/5/5
f 6/6/6 5/5/5 7/7/7
f 6/6/6 8/8/8 2/2/2
f 4/4/4 6/6/6 2/2/2
f 8/8/8 6/6/6 9/9/9
f 9/9/9 6/6/6 7/7/7
f 10/10/10 2/2/2 8/8/8
f 10/10/10 8/8/8 9/9/9
f 2/2/2 10/10/10 3/3/3
f 9/11/9 3/12/3 10/10/10
f 5/13/5 1/1/1 3/12/3
f 11/14/11 12/10/11 5/15/11
f 13/1/12 11/14/12 9/16/12
f 11/14/13 14/17/13 15/18/13
f 16/19/14 7/20/7 5/1/5
f 7/20/7 17/21/15 9/22/9
f 17/23/15 7/24/7 16/25/14
f 18/26/16 19/27/16 20/28/16
f 19/27/17 21/26/17 22/28/17
f 23/29/18 24/30/19 25/31/20
f 23/29/18 26/32/21 27/33/22
f 24/30/19 26/32/21 25/31/20
f 24/30/19 23/29/18 27/34/22
f 25/35/20 26/32/21 28/36/23
f 26/32/21 24/30/19 27/34/22
f 26/32/21 23/29/18 29/37/24
f 29/38/24 28/36/23 26/32/21
f 28/36/23 23/29/18 25/35/20
f 29/38/24 23/29/18 28/36/23
f 30/39/25 31/40/26 32/41/27
f 31/40/26 30/39/25 33/42/28
f 34/43/29 33/44/28 35/45/30
f 35/45/30 36/46/31 34/43/29
f 31/40/26 33/44/28 34/43/29
f 34/43/29 36/46/31 31/40/26
f 30/39/25 35/45/30 33/42/28
f 35/45/30 31/40/26 36/47/31
f 31/40/26 35/45/30 32/48/27
f 35/45/30 30/39/25 32/41/27
f 37/49/32 38/50/33 39/51/34
f 40/50/35 41/49/36 42/51/37
f 42/52/37 37/50/32 39/51/34
f 37/50/32 42/52/37 41/49/36
f 43/53/38 44/54/38 45/55/38
f 46/56/39 47/57/39 48/58/39
f 49/59/40 50/60/41 51/61/42
f 51/61/42 50/60/41 52/62/43
