# Blender v2.69 (sub 0) OBJ File: ''
# www.blender.org
mtllib universe.mtl
o Cube
v 1.000000 -1.000000 -1.000000
v 1.000000 -1.000000 1.000000
v -1.000000 -1.000000 1.000000
v -1.000000 -1.000000 -1.000000
v 1.000000 1.000000 -0.999999
v 0.999999 1.000000 1.000001
v -1.000000 1.000000 1.000000
v -1.000000 1.000000 -1.000000
vt 0.497090 0.659567
vt 0.497090 0.340071
vt 0.747978 0.660808
vt 0.256447 0.659567
vt 0.004627 0.660809
vt 0.256447 0.340071
vt 0.497090 0.005675
vt 0.747978 0.340071
vt 0.996072 0.340071
vt 0.256448 0.993964
vt 0.004627 0.340071
vt 0.256447 0.005675
vt 0.996072 0.660808
vt 0.497091 0.993963
vn 0.000000 -1.000000 0.000000
vn 0.000000 1.000000 0.000000
vn 1.000000 -0.000000 0.000000
vn 0.000000 -0.000000 1.000000
vn -1.000000 -0.000000 -0.000000
vn 0.000000 0.000000 -1.000000
vn 1.000000 0.000000 0.000001
usemtl Material
s off
f 1/1/1 2/2/1 4/3/1
f 5/4/2 8/5/2 6/6/2
f 1/1/3 5/4/3 2/2/3
f 2/2/4 6/6/4 3/7/4
f 3/8/5 7/9/5 4/3/5
f 5/4/6 1/1/6 8/10/6
f 2/2/1 3/8/1 4/3/1
f 8/5/2 7/11/2 6/6/2
f 5/4/7 6/6/7 2/2/7
f 6/6/4 7/12/4 3/7/4
f 7/9/5 8/13/5 4/3/5
f 1/1/6 4/14/6 8/10/6
